<svg xmlns="http://www.w3.org/2000/svg" width="100" height="39"><defs><filter id="A"><feColorMatrix in="SourceGraphic" values="0 0 0 0 0.325490 0 0 0 0 0.333333 0 0 0 0 0.352941 0 0 0 1.000000 0"/></filter></defs><g fill="none" fill-rule="evenodd"><path d="M90.131 10.669l.826-.083c2.778-.409 5.144-2.023 5.144-5.018 0-5.674-6.824-5.412-9.715-5.412h-4.231c.582 1.32.545 2.159.545 3.106v13.522c0 .98.037 1.747-.545 3.108h4.312c-.552-1.36-.552-2.128-.552-3.108V10.71c.413.024 1.054.159 1.96 1.23 3.177 3.782 5.714 6.168 7.674 7.965h3.981l-9.399-9.236m-4.217-.938V1.32c6.191-.248 6.826 2.832 6.893 4.247.059 1.467-.554 3.204-2.376 3.899l.009-.008s-.03.011-.089.037c-.974.423-4.438.237-4.438.237m-6.927 6.939L71.512.167h-.856l-7.593 16.978c-.576 1.265-.85 1.732-1.661 2.747h.013 2.267.274l3.212-7.224h6.553l3.255 7.224h4.329c-1.145-1.104-1.521-1.608-2.319-3.221h0zM67.8 11.293l2.619-5.892 2.671 5.892H67.8zm-9.308 5.378L51.018.167h-.859l-7.591 16.978c-.576 1.265-.85 1.732-1.662 2.747h.015 2.267.274l3.214-7.224h6.551l3.256 7.224h4.329c-1.145-1.104-1.521-1.608-2.319-3.221h0zm-11.186-5.379L49.927 5.4l2.669 5.892h-5.29zm-11.429 8.6c.191-.974.191-2.343.037-3.462L34.66 7.137l-6.839 12.746h-1.306L19.558 6.561l-1.35 10.075c-.148 1.161-.191 2.634-.068 3.256h-2.447c.472-1.011.589-1.445.811-3.103L18.716.167h1.128l8.115 15.511L36.068.167h.848l2.286 16.587c.228 1.654.398 2.128.854 3.138h-4.179zm-21.235-1.966l-.295 1.967H.239c.583-1.36.546-2.128.546-3.108V3.273c0-.947.037-1.786-.546-3.106h4.229 9.539l.024 2.002-.656-.281c-.509-.191-1.159-.369-1.83-.365H3.997v7.724h8.854l-.435 1.517H3.997v7.731h7.985c1.347.022 2.682-.739 2.682-.739l-.037.169h.015z" fill="#53555a" fill-rule="nonzero"/><g filter="url(#A)"><g transform="translate(35 31)" fill="#000"><path d="M.056 1.508L0 0l.255.041A1.8 1.8 0 0 0 .5.058C.582.058.663.052.745.041L1 0 .944 1.508.918 3.016v2.003l.025 1.514L1 8a5.08 5.08 0 0 0-.5-.023L0 8l.056-1.467.025-1.514V3.016L.056 1.508"/><path d="M8.271 4.943L5.662 1.829l-.02.841-.01 1.437.005.583.01.729.015.774.02.729.02.589.02.342c-.107-.015-.224-.022-.351-.022-.134 0-.258.007-.371.022.013-.074.028-.213.045-.415l.045-.724.046-.915.04-.987.025-.965.01-.842-.005-1.851L5.181 0h.16L6.65 1.588 8.035 3.26 9.34 4.819l1.078 1.251V4.544l-.015-2.295-.065-2.104c.134.038.247.056.341.056.08 0 .187-.019.321-.056l-.045.741-.05 1.055-.046 1.1-.02.864v.673l.005.797.01.836.01.785.005.634V8h-.141L8.271 4.943"/><path d="M15.997 5.019l.067 2.469c.155.039.365.068.631.087l.82.029c.406 0 .812-.05 1.218-.152s.77-.291 1.091-.57.583-.662.786-1.147.305-1.112.305-1.88c0-.676-.079-1.231-.238-1.666s-.377-.779-.653-1.031a2.28 2.28 0 0 0-.991-.524c-.384-.097-.805-.146-1.263-.146l-.93.035-.775.082-.05 1.17-.016 1.24v2.003zm-.908-2.003l-.028-1.508L15 0l.837.041.836.017.836-.029.837-.029c.65 0 1.205.089 1.667.268s.84.433 1.135.763a3.04 3.04 0 0 1 .648 1.211c.136.477.204 1.015.204 1.613 0 .776-.127 1.43-.382 1.962s-.58.96-.975 1.287-.831.557-1.307.693S18.404 8 17.969 8c-.251 0-.498-.004-.742-.012l-.743-.012h-.742L15 8l.061-1.467.028-1.514V3.016z"/><path d="M24.056 1.508L24 0l.255.041c.082.011.164.017.245.017a1.8 1.8 0 0 0 .245-.017L25 0l-.056 1.508-.025 1.508v2.003l.025 1.514L25 8a5.08 5.08 0 0 0-.5-.023L24 8l.056-1.467.025-1.514V3.016l-.025-1.508"/><path d="M30.101 4.446l.597.011.597.012.619-.006.619-.017-1.227-2.903-1.205 2.903zM35 8c-.103-.015-.201-.023-.293-.023h-.293-.293a2.01 2.01 0 0 0-.293.023l-.21-.634-.293-.777-.327-.823-.309-.794-.719-.017-.73-.006-.675.006-.674.017-.641 1.697L28.819 8a3.41 3.41 0 0 0-.409-.023A3.4 3.4 0 0 0 28 8l1.747-3.977L31.461 0h.21l.575 1.434.63 1.56.641 1.566.603 1.445.508 1.194L35 8h0z"/></g></g></g></svg>